<svg width="17" height="12" viewBox="0 0 17 12" fill="none" xmlns="http://www.w3.org/2000/svg">
<path d="M3.06392 1.01265C1.20753 3.6256 0.290743 6.57293 0.63346 9.96599C0.634898 9.98035 0.642706 9.99353 0.655034 10.0022C2.06083 10.9904 3.42287 11.5901 4.76579 11.9879C4.77625 11.9909 4.78744 11.9907 4.79779 11.9874C4.80814 11.984 4.81714 11.9777 4.82353 11.9692C5.13378 11.5559 5.41568 11.1202 5.66265 10.6627C5.67683 10.6357 5.66388 10.6033 5.63471 10.5927C5.187 10.4312 4.76127 10.2376 4.35178 10.0085C4.31952 9.99038 4.31747 9.94612 4.34726 9.92488C4.43417 9.86312 4.52026 9.7982 4.60265 9.73329C4.61806 9.7213 4.63881 9.71894 4.65628 9.727C7.3148 10.9023 10.2271 10.9023 12.917 9.727C12.9345 9.71953 12.9553 9.72208 12.9703 9.73388C13.0524 9.79879 13.1387 9.86312 13.2248 9.92488C13.2546 9.94612 13.2522 9.99038 13.2197 10.0085C12.8102 10.2333 12.3845 10.4312 11.9374 10.5935C11.9084 10.6041 11.8946 10.6357 11.909 10.6627C12.1507 11.1208 12.4326 11.5565 12.7486 11.9698C12.7623 11.9865 12.7849 11.9942 12.8063 11.9879C14.1429 11.5901 15.5049 10.9904 16.9107 10.0022C16.9224 9.99353 16.9308 9.97976 16.9321 9.9654C17.2185 7.03045 16.6347 4.05873 14.5039 1.01206C14.4987 1.00399 14.4909 0.997699 14.4819 0.993962C13.4334 0.533293 12.3101 0.194381 11.1361 0.000829188C11.1147 -0.00231799 11.0933 0.00712355 11.0822 0.0252199C10.9372 0.271093 10.7714 0.586402 10.6592 0.844077C9.42165 0.663114 8.16482 0.663114 6.90141 0.844077C6.78922 0.591909 6.62916 0.271093 6.48472 0.0252199C6.47958 0.0162425 6.4716 0.00905028 6.46194 0.00467008C6.45227 0.000289879 6.4414 -0.00105439 6.43089 0.000829188C5.25624 0.194971 4.13296 0.533883 3.08529 0.993962C3.07604 0.997699 3.06844 1.00399 3.06392 1.01265ZM10.03 6.593C10.0171 5.72536 10.6779 5.00741 11.5073 5.00741C12.33 5.00741 12.9844 5.71906 12.9844 6.593C12.9844 7.46673 12.3171 8.17839 11.5073 8.17839C10.6844 8.17839 10.03 7.46673 10.03 6.593ZM4.56834 6.593C4.5554 5.72536 5.21617 5.00741 6.04544 5.00741C6.86833 5.00741 7.52273 5.71906 7.52273 6.593C7.52273 7.46673 6.85538 8.17839 6.04544 8.17839C5.21617 8.17839 4.56834 7.46673 4.56834 6.593Z" fill="#A9B9D3"/>
</svg>
