<svg width="161" height="41" viewBox="0 0 161 41" fill="none" xmlns="http://www.w3.org/2000/svg">
<rect x="0.5" y="0.5" width="160" height="40" rx="9.5" fill="url(#paint0_linear_58_28)"/>
<rect x="0.5" y="0.5" width="160" height="40" rx="9.5" stroke="url(#paint1_linear_58_28)"/>
<path d="M47.0292 20.428H52.0692V21.618H47.0292V20.428ZM47.1552 24.782H52.8672V26H45.7552V16.2H52.6712V17.418H47.1552V24.782ZM53.696 26L56.888 21.856L56.874 22.542L53.836 18.58H55.334L57.658 21.632H57.084L59.408 18.58H60.878L57.798 22.57L57.812 21.856L61.032 26H59.506L57.056 22.752L57.602 22.836L55.194 26H53.696ZM66.4326 26.084C65.8166 26.084 65.2519 25.944 64.7386 25.664C64.2346 25.3747 63.8286 24.95 63.5206 24.39C63.2219 23.83 63.0726 23.13 63.0726 22.29C63.0726 21.45 63.2173 20.75 63.5066 20.19C63.8053 19.63 64.2066 19.21 64.7106 18.93C65.2239 18.65 65.7979 18.51 66.4326 18.51C67.1606 18.51 67.8046 18.6687 68.3646 18.986C68.9246 19.3033 69.3679 19.7467 69.6946 20.316C70.0213 20.876 70.1846 21.534 70.1846 22.29C70.1846 23.046 70.0213 23.7087 69.6946 24.278C69.3679 24.8473 68.9246 25.2907 68.3646 25.608C67.8046 25.9253 67.1606 26.084 66.4326 26.084ZM62.4986 28.716V18.58H63.7866V20.582L63.7026 22.304L63.8426 24.026V28.716H62.4986ZM66.3206 24.908C66.7966 24.908 67.2213 24.8007 67.5946 24.586C67.9773 24.3713 68.2759 24.068 68.4906 23.676C68.7146 23.2747 68.8266 22.8127 68.8266 22.29C68.8266 21.758 68.7146 21.3007 68.4906 20.918C68.2759 20.526 67.9773 20.2227 67.5946 20.008C67.2213 19.7933 66.7966 19.686 66.3206 19.686C65.8539 19.686 65.4293 19.7933 65.0466 20.008C64.6733 20.2227 64.3746 20.526 64.1506 20.918C63.9359 21.3007 63.8286 21.758 63.8286 22.29C63.8286 22.8127 63.9359 23.2747 64.1506 23.676C64.3746 24.068 64.6733 24.3713 65.0466 24.586C65.4293 24.8007 65.8539 24.908 66.3206 24.908ZM72.0416 26V15.612H73.3856V26H72.0416ZM79.1297 26.084C78.3831 26.084 77.7204 25.9207 77.1417 25.594C76.5631 25.2673 76.1057 24.8193 75.7697 24.25C75.4337 23.6713 75.2657 23.018 75.2657 22.29C75.2657 21.5527 75.4337 20.8993 75.7697 20.33C76.1057 19.7607 76.5631 19.3173 77.1417 19C77.7204 18.6733 78.3831 18.51 79.1297 18.51C79.8671 18.51 80.5251 18.6733 81.1037 19C81.6917 19.3173 82.1491 19.7607 82.4757 20.33C82.8117 20.89 82.9797 21.5433 82.9797 22.29C82.9797 23.0273 82.8117 23.6807 82.4757 24.25C82.1491 24.8193 81.6917 25.2673 81.1037 25.594C80.5251 25.9207 79.8671 26.084 79.1297 26.084ZM79.1297 24.908C79.6057 24.908 80.0304 24.8007 80.4037 24.586C80.7864 24.3713 81.0851 24.068 81.2997 23.676C81.5144 23.2747 81.6217 22.8127 81.6217 22.29C81.6217 21.758 81.5144 21.3007 81.2997 20.918C81.0851 20.526 80.7864 20.2227 80.4037 20.008C80.0304 19.7933 79.6057 19.686 79.1297 19.686C78.6537 19.686 78.2291 19.7933 77.8557 20.008C77.4824 20.2227 77.1837 20.526 76.9597 20.918C76.7357 21.3007 76.6237 21.758 76.6237 22.29C76.6237 22.8127 76.7357 23.2747 76.9597 23.676C77.1837 24.068 77.4824 24.3713 77.8557 24.586C78.2291 24.8007 78.6537 24.908 79.1297 24.908ZM84.8385 26V18.58H86.1265V20.596L86.0005 20.092C86.2058 19.5787 86.5511 19.1867 87.0365 18.916C87.5218 18.6453 88.1191 18.51 88.8285 18.51V19.812C88.7725 19.8027 88.7165 19.798 88.6605 19.798C88.6138 19.798 88.5671 19.798 88.5205 19.798C87.8018 19.798 87.2325 20.0127 86.8125 20.442C86.3925 20.8713 86.1825 21.492 86.1825 22.304V26H84.8385ZM93.7206 26.084C92.9272 26.084 92.2272 25.9207 91.6206 25.594C91.0232 25.2673 90.5566 24.8193 90.2206 24.25C89.8939 23.6807 89.7306 23.0273 89.7306 22.29C89.7306 21.5527 89.8892 20.8993 90.2066 20.33C90.5332 19.7607 90.9766 19.3173 91.5366 19C92.1059 18.6733 92.7452 18.51 93.4546 18.51C94.1732 18.51 94.8079 18.6687 95.3586 18.986C95.9092 19.3033 96.3386 19.7513 96.6466 20.33C96.9639 20.8993 97.1226 21.5667 97.1226 22.332C97.1226 22.388 97.1179 22.4533 97.1086 22.528C97.1086 22.6027 97.1039 22.6727 97.0946 22.738H90.7806V21.772H96.3946L95.8486 22.108C95.8579 21.632 95.7599 21.2073 95.5546 20.834C95.3492 20.4607 95.0646 20.1713 94.7006 19.966C94.3459 19.7513 93.9306 19.644 93.4546 19.644C92.9879 19.644 92.5726 19.7513 92.2086 19.966C91.8446 20.1713 91.5599 20.4653 91.3546 20.848C91.1492 21.2213 91.0466 21.6507 91.0466 22.136V22.36C91.0466 22.8547 91.1586 23.298 91.3826 23.69C91.6159 24.0727 91.9379 24.3713 92.3486 24.586C92.7592 24.8007 93.2306 24.908 93.7626 24.908C94.2012 24.908 94.5979 24.8333 94.9526 24.684C95.3166 24.5347 95.6339 24.3107 95.9046 24.012L96.6466 24.88C96.3106 25.272 95.8906 25.5707 95.3866 25.776C94.8919 25.9813 94.3366 26.084 93.7206 26.084Z" fill="#E7F0FF"/>
<path d="M110 20.84H118M118 20.84L114.16 17M118 20.84L114.16 24.68" stroke="#5973F3" stroke-linecap="round" stroke-linejoin="round"/>
<defs>
<linearGradient id="paint0_linear_58_28" x1="0" y1="20.5" x2="161" y2="20.5" gradientUnits="userSpaceOnUse">
<stop stop-color="#2B2D32"/>
<stop offset="1" stop-color="#282C37"/>
</linearGradient>
<linearGradient id="paint1_linear_58_28" x1="81" y1="-1.87143e-08" x2="81" y2="41" gradientUnits="userSpaceOnUse">
<stop stop-color="#3E496F" stop-opacity="0.5"/>
<stop offset="1" stop-color="#323645" stop-opacity="0.2"/>
</linearGradient>
</defs>
</svg>
