<svg width="25" height="26" viewBox="0 0 25 26" fill="none" xmlns="http://www.w3.org/2000/svg">
<path d="M6.74107 17.1864C6.41183 17.1641 6.03795 17.1417 5.61384 17.1138C5.42969 17.3426 5.24554 17.5826 5.24554 17.8672C5.24554 18.8996 8.90067 18.8996 8.90067 17.7835C8.90067 17.3203 8.48772 17.298 6.73549 17.1864H6.74107ZM7.17634 10.6071C5.37388 10.6071 5.29576 13.0904 7.13728 13.0904C8.95089 13.0904 8.90625 10.6071 7.17634 10.6071ZM21.4286 0.25H3.57143C1.60156 0.25 0 1.85156 0 3.82143V21.6786C0 23.6484 1.60156 25.25 3.57143 25.25H21.4286C23.3984 25.25 25 23.6484 25 21.6786V3.82143C25 1.85156 23.3984 0.25 21.4286 0.25ZM13.6105 8.07366C12.8013 8.07366 12.3326 7.60491 12.3326 6.79576C12.3326 5.98661 12.8013 5.55134 13.6105 5.55134C14.4308 5.55134 14.8996 5.98661 14.8996 6.79576C14.8996 7.60491 14.4308 8.07366 13.6105 8.07366ZM8.34821 9.34598H11.1105V10.5513L9.80469 10.6518C10.0614 10.9754 10.3292 11.433 10.3292 12.0859C10.3292 14.8036 7.13728 14.7199 6.18862 14.452L5.71987 15.1998C5.99888 15.2165 6.26674 15.2333 6.51786 15.2444C9.6596 15.423 11.01 15.5011 11.01 17.3929C11.01 19.0223 9.57589 19.9431 7.10938 19.9431C4.54241 19.9431 3.56585 19.2958 3.56585 18.1741C3.56585 17.5379 3.85045 17.1975 4.3471 16.7288C3.87835 16.5335 3.7221 16.1763 3.7221 15.7913C3.7221 15.2556 4.13504 14.8817 5.00558 14.0837L5.01674 14.0725C4.32478 13.7321 3.80022 12.9955 3.80022 11.9464C3.80022 9.06696 6.95871 8.9721 8.35379 9.33482L8.34821 9.34598ZM15.0949 15.3783L15.8203 15.4788V16.6004H11.7801V15.4788C11.9308 15.4565 12.0592 15.4397 12.1652 15.4286C12.7176 15.3616 12.7288 15.356 12.7288 15.0937V10.9252C12.7288 10.6797 12.6786 10.6629 12.1652 10.49C12.0592 10.4509 11.9308 10.4118 11.7801 10.356L11.9364 9.20647H14.8717V15.0937C14.8717 15.3225 14.8828 15.3504 15.1004 15.3783H15.0949ZM21.0435 14.798L21.4286 16.0424C20.8203 16.3437 19.9275 16.6116 19.1183 16.6116C17.433 16.6116 16.7913 15.9308 16.7913 14.3292V10.6127C16.7913 10.5681 16.7913 10.5346 16.7801 10.5123C16.7355 10.4453 16.5458 10.4732 15.6864 10.4732V9.21205C16.9308 9.07254 17.4275 8.44754 17.5837 6.90179H18.9342C18.9342 8.76004 18.9007 9.02232 18.9732 9.0558C18.99 9.06138 19.0123 9.0558 19.0458 9.0558H21.0435V10.4732H18.9342V13.8605C18.9342 13.8717 18.9342 13.8884 18.9342 13.9107C18.923 14.2623 18.8839 15.6071 21.0491 14.798H21.0435Z" fill="#5973F3"/>
</svg>
