<svg width="11" height="12" viewBox="0 0 11 12" fill="none" xmlns="http://www.w3.org/2000/svg">
<path d="M9.90845 2.22982C9.86205 2.16824 9.81246 2.10912 9.7599 2.0527C9.81277 1.91182 9.85293 1.7665 9.87989 1.61847C9.95948 1.07693 9.89036 0.523949 9.67991 0.0186712C9.67991 0.0186712 9.03999 -0.181303 7.57161 0.807142C6.94821 0.635015 6.30429 0.548518 5.65757 0.550032C5.00899 0.548895 4.36323 0.63538 3.73781 0.807142C2.26943 -0.19273 1.62951 0.0186712 1.62951 0.0186712C1.42158 0.518599 1.35249 1.06539 1.42954 1.60133C1.45665 1.75552 1.49875 1.90669 1.55523 2.0527C1.50381 2.10983 1.45239 2.17268 1.40668 2.22982C0.980328 2.76462 0.754006 3.43146 0.766764 4.11529C0.765408 4.27747 0.773038 4.43961 0.789618 4.60094C0.972452 7.13205 2.65795 7.72055 4.26346 7.90338C4.03622 8.11469 3.88214 8.39285 3.82352 8.69756C3.77041 8.90079 3.74542 9.11033 3.74924 9.32034V10.0688C3.10989 10.126 2.45398 10.0328 2.25057 9.46261C2.03223 8.91683 1.67012 8.4404 1.20271 8.08393C1.16855 8.06544 1.13605 8.04403 1.10558 8.01994C1.06453 7.91207 0.991816 7.81914 0.89698 7.75337C0.802144 7.6876 0.689628 7.65205 0.574217 7.65141H0.57136C0.420321 7.65141 0.275426 7.71121 0.168358 7.81775C0.0612894 7.92428 0.000759927 8.06887 4.7309e-06 8.21991C-0.00170934 8.68385 0.462803 8.98381 0.653064 9.08551C0.875353 9.3095 1.05416 9.57278 1.18043 9.86199C1.3884 10.4465 1.99689 11.3349 3.7321 11.2195L3.73324 11.2755L3.73553 11.4286C3.73553 11.5802 3.79572 11.7255 3.90287 11.8327C4.01002 11.9398 4.15535 12 4.30688 12H7.00025C7.15179 12 7.29711 11.9398 7.40426 11.8327C7.51141 11.7255 7.57161 11.5802 7.57161 11.4286C7.57161 11.4286 7.57618 9.62316 7.57618 9.32034C7.57999 9.11033 7.555 8.90079 7.50191 8.69756L7.50076 8.69414L7.50305 8.69756C7.49791 8.67757 7.49048 8.66157 7.48476 8.64214C7.4211 8.35906 7.27379 8.10166 7.06196 7.90338L7.06882 7.91538L7.05739 7.90395C8.6629 7.72112 10.337 7.12119 10.5198 4.60152C10.5364 4.44018 10.544 4.27804 10.5427 4.11586C10.5528 3.43339 10.329 2.76743 9.90845 2.22982Z" fill="#A9B9D3"/>
</svg>
