<?xml version="1.0" encoding="iso-8859-1"?>
<!-- Generator: Adobe Illustrator 26.4.1, SVG Export Plug-In . SVG Version: 6.00 Build 0)  -->
<svg version="1.1" baseProfile="basic" id="Layer_1"
	 xmlns="http://www.w3.org/2000/svg" xmlns:xlink="http://www.w3.org/1999/xlink" x="0px" y="0px" viewBox="0 0 64 64"
	 xml:space="preserve">
<linearGradient id="SVGID_1_" gradientUnits="userSpaceOnUse" x1="32" y1="17.9362" x2="32" y2="43.068">
	<stop  offset="0" style="stop-color:#6DC7FF"/>
	<stop  offset="1" style="stop-color:#E6ABFF"/>
</linearGradient>
<path style="fill:url(#SVGID_1_);" d="M41.806,25H17.032l5.161-6h24.774L41.806,25z M17.032,45h24.774l5.161-6H22.194L17.032,45z
	 M17.032,29l5.161,6h24.774l-5.161-6H17.032z"/>
<linearGradient id="SVGID_00000084531432827778709340000006843633807323174810_" gradientUnits="userSpaceOnUse" x1="32" y1="8.5532" x2="32" y2="55.3307">
	<stop  offset="0" style="stop-color:#1A6DFF"/>
	<stop  offset="1" style="stop-color:#C822FF"/>
</linearGradient>
<path style="fill:url(#SVGID_00000084531432827778709340000006843633807323174810_);" d="M32,58C17.663,58,6,46.337,6,32
	C6,17.664,17.663,6,32,6s26,11.664,26,26C58,46.337,46.337,58,32,58z M32,8C18.767,8,8,18.767,8,32s10.767,24,24,24s24-10.767,24-24
	S45.233,8,32,8z"/>
</svg>