<svg width="29" height="28" viewBox="0 0 29 28" fill="none" xmlns="http://www.w3.org/2000/svg">
<rect width="29" height="28" rx="7" fill="#2E4D7E"/>
<g clip-path="url(#clip0_10_22)">
<path d="M14.5047 8.6094C11.5234 8.6094 9.11873 11.0141 9.11873 13.9953C9.11873 16.9766 11.5234 19.3813 14.5047 19.3813C17.4859 19.3813 19.8906 16.9766 19.8906 13.9953C19.8906 11.0141 17.4859 8.6094 14.5047 8.6094ZM14.5047 17.4969C12.5781 17.4969 11.0031 15.9266 11.0031 13.9953C11.0031 12.0641 12.5734 10.4938 14.5047 10.4938C16.4359 10.4938 18.0062 12.0641 18.0062 13.9953C18.0062 15.9266 16.4312 17.4969 14.5047 17.4969ZM21.3672 8.38909C21.3672 9.08752 20.8047 9.64534 20.1109 9.64534C19.4125 9.64534 18.8547 9.08284 18.8547 8.38909C18.8547 7.69534 19.4172 7.13284 20.1109 7.13284C20.8047 7.13284 21.3672 7.69534 21.3672 8.38909ZM24.9344 9.66409C24.8547 7.98127 24.4703 6.49065 23.2375 5.26252C22.0094 4.0344 20.5187 3.65002 18.8359 3.56565C17.1015 3.46721 11.9031 3.46721 10.1687 3.56565C8.4906 3.64534 6.99998 4.02971 5.76716 5.25784C4.53435 6.48596 4.15466 7.97659 4.07029 9.6594C3.97185 11.3938 3.97185 16.5922 4.07029 18.3266C4.14998 20.0094 4.53435 21.5 5.76716 22.7282C6.99998 23.9563 8.48591 24.3407 10.1687 24.425C11.9031 24.5235 17.1015 24.5235 18.8359 24.425C20.5187 24.3453 22.0094 23.961 23.2375 22.7282C24.4656 21.5 24.85 20.0094 24.9344 18.3266C25.0328 16.5922 25.0328 11.3985 24.9344 9.66409ZM22.6937 20.1875C22.3281 21.1063 21.6203 21.8141 20.6969 22.1844C19.314 22.7328 16.0328 22.6063 14.5047 22.6063C12.9765 22.6063 9.6906 22.7282 8.31248 22.1844C7.39373 21.8188 6.68591 21.111 6.3156 20.1875C5.76716 18.8047 5.89373 15.5235 5.89373 13.9953C5.89373 12.4672 5.77185 9.18127 6.3156 7.80315C6.68123 6.8844 7.38904 6.17659 8.31248 5.80627C9.69529 5.25784 12.9765 5.3844 14.5047 5.3844C16.0328 5.3844 19.3187 5.26252 20.6969 5.80627C21.6156 6.1719 22.3234 6.87971 22.6937 7.80315C23.2422 9.18596 23.1156 12.4672 23.1156 13.9953C23.1156 15.5235 23.2422 18.8094 22.6937 20.1875Z" fill="black"/>
</g>
<defs>
<clipPath id="clip0_10_22">
<rect width="21" height="24" fill="white" transform="translate(4 2)"/>
</clipPath>
</defs>
</svg>
