<svg width="25" height="26" viewBox="0 0 25 26" fill="none" xmlns="http://www.w3.org/2000/svg">
<path d="M0 0.8125V25.8125H25V0.8125H0ZM13.6049 20.3103C13.6049 22.7433 12.1763 23.8538 10.0949 23.8538C8.21428 23.8538 7.12612 22.8828 6.56808 21.7054L8.48214 20.5502C8.85045 21.2031 9.18527 21.7556 9.99442 21.7556C10.7645 21.7556 11.2556 21.4542 11.2556 20.2768V12.2913H13.6049V20.3103ZM19.1629 23.8538C16.981 23.8538 15.5692 22.8158 14.8828 21.4542L16.7969 20.3493C17.2991 21.1696 17.9576 21.7779 19.1127 21.7779C20.0837 21.7779 20.7087 21.2924 20.7087 20.6172C20.7087 19.8136 20.0725 19.529 18.9955 19.0547L18.4096 18.8036C16.7132 18.0837 15.5915 17.1741 15.5915 15.26C15.5915 13.4967 16.9364 12.1574 19.029 12.1574C20.5246 12.1574 21.596 12.6763 22.3661 14.0379L20.5357 15.2098C20.1339 14.49 19.6987 14.2054 19.0234 14.2054C18.3371 14.2054 17.9018 14.6406 17.9018 15.2098C17.9018 15.9129 18.3371 16.1975 19.3471 16.6384L19.933 16.8895C21.9308 17.7433 23.0525 18.6194 23.0525 20.5837C23.0525 22.6931 21.3895 23.8538 19.1629 23.8538Z" fill="#5973F3"/>
</svg>
