<svg width="14" height="12" viewBox="0 0 14 12" fill="none" xmlns="http://www.w3.org/2000/svg">
<path d="M13.0977 11.9996V7.35748C13.0977 4.87007 11.7701 3.71268 9.99984 3.71268C8.57135 3.71268 7.93106 4.49853 7.57442 5.05015V3.90296H4.88299C4.9187 4.66292 4.88299 11.9996 4.88299 11.9996H7.57442V7.47793C7.57442 7.23664 7.59168 6.99457 7.66309 6.82194C7.8573 6.33819 8.30024 5.83757 9.04333 5.83757C10.0175 5.83757 10.4067 6.57987 10.4067 7.66821V12L13.0977 11.9996ZM2.04758 2.79775C2.98566 2.79775 3.57063 2.17551 3.57063 1.39829C3.55337 0.604198 2.98605 0 2.06563 0C1.14521 0 0.542969 0.603806 0.542969 1.39829C0.542969 2.17551 1.12716 2.79775 2.03071 2.79775H2.04758ZM3.39329 11.9996V3.90296H0.702257V11.9996H3.39329Z" fill="#A9B9D3"/>
</svg>
