<svg width="40" height="40" viewBox="0 0 40 40" fill="none" xmlns="http://www.w3.org/2000/svg">
<g clip-path="url(#clip0_58_15)">
<path d="M8.36958 22.0657C4.25268 18.0377 3.52484 11.8522 6.22477 7.06189C5.30934 7.60468 4.44878 8.27424 3.66947 9.07099C-1.13825 13.9846 -1.05232 21.8654 3.86132 26.6731C8.77497 31.4808 16.6557 31.3949 21.4634 26.4812C22.2432 25.6845 22.8936 24.8099 23.4164 23.8825C18.6861 26.6863 12.4865 26.0937 8.36958 22.0653V22.0657Z" fill="#5973F3"/>
<path d="M12.3962 10.9606C13.8264 5.3812 18.8191 1.65821 24.3177 1.60121C23.3899 1.07968 22.3801 0.669611 21.3 0.392684C14.6406 -1.31397 7.85862 2.70083 6.15196 9.36027C4.44531 16.0197 8.46011 22.8017 15.1191 24.5083C16.1988 24.7852 17.2818 24.9111 18.3461 24.9001C13.5528 22.2057 10.9661 16.54 12.3962 10.9606Z" fill="#5973F3"/>
<path d="M24.0268 8.8948C29.5738 7.34341 35.2944 9.80598 38.0926 14.5393C38.0803 13.4754 37.9305 12.3953 37.6306 11.3216C35.7789 4.70133 28.911 0.834987 22.2907 2.6867C15.6704 4.53841 11.8041 11.4063 13.6558 18.0266C13.9561 19.1003 14.3883 20.1012 14.9298 21.0171C14.8669 15.5189 18.4801 10.4458 24.0268 8.89437V8.8948Z" fill="#5973F3"/>
<path d="M31.6305 17.9348C35.7474 21.9628 36.4753 28.1483 33.7753 32.9386C34.6908 32.3958 35.5513 31.7263 36.3306 30.9295C41.1384 26.0159 41.0524 18.1352 36.1388 13.3274C31.2251 8.51971 23.3444 8.60564 18.5367 13.5193C17.757 14.316 17.1065 15.1906 16.5837 16.118C21.314 13.3142 27.5136 13.9068 31.6305 17.9352V17.9348Z" fill="#5973F3"/>
<path d="M27.6043 29.0395C26.1742 34.6189 21.1814 38.3418 15.6829 38.3989C16.6106 38.9204 17.6205 39.3304 18.7006 39.6074C25.36 41.314 32.1419 37.2992 33.8486 30.6402C35.5552 23.9808 31.5404 17.1988 24.8814 15.4922C23.8018 15.2153 22.7188 15.0893 21.6544 15.1004C26.4477 17.7948 29.0345 23.4605 27.6043 29.0399V29.0395Z" fill="#5973F3"/>
<path d="M15.9738 31.1052C10.4268 32.6566 4.70616 30.194 1.90796 25.4607C1.9203 26.5246 2.07003 27.6047 2.36993 28.6783C4.22164 35.2986 11.0895 39.165 17.7098 37.3133C24.3301 35.4616 28.1965 28.5937 26.3447 21.9734C26.0444 20.8997 25.6122 19.8988 25.0707 18.9829C25.1337 24.481 21.5204 29.5542 15.9738 31.1056V31.1052Z" fill="#5973F3"/>
</g>
<defs>
<clipPath id="clip0_58_15">
<rect width="40" height="40" fill="white"/>
</clipPath>
</defs>
</svg>
