<svg width="25" height="25" viewBox="0 0 25 25" fill="none" xmlns="http://www.w3.org/2000/svg">
<path d="M23.9167 5.76923L13.5833 0.259615C12.9271 -0.0865385 12.0625 -0.0865385 11.4062 0.259615L1.08333 5.75961C0.416667 6.11538 0 6.78846 0 7.5V17.4808C0 18.2019 0.416667 18.8654 1.08333 19.2212L3.79167 20.6635C5.10417 21.2596 5.57292 21.2596 6.16667 21.2596C8.11458 21.2596 9.22917 20.1731 9.22917 18.2885V7.99038C9.22917 7.83654 9.09375 7.71154 8.92708 7.71154H7.625C7.44792 7.71154 7.32292 7.83654 7.32292 7.99038V18.2788C7.32292 19.125 6.375 19.9519 4.84375 19.25L2.01042 17.7404C1.90625 17.6923 1.84375 17.5865 1.84375 17.4808V7.50962C1.84375 7.39423 1.90625 7.29808 2.01042 7.24038L12.3333 1.74038C12.4271 1.68269 12.5521 1.68269 12.6562 1.74038L22.9792 7.24038C23.0833 7.29808 23.1458 7.39423 23.1458 7.5V17.4808C23.1458 17.5865 23.0833 17.6923 22.9896 17.7404L12.6562 23.25C12.5625 23.2981 12.4271 23.2981 12.3333 23.25L9.67708 21.7981C9.60417 21.75 9.5 21.7404 9.42708 21.7788C8.6875 22.1635 8.55208 22.2115 7.86458 22.4327C7.69792 22.4808 7.4375 22.5769 7.95833 22.8462L11.4062 24.7308C11.7396 24.9038 12.1146 25 12.4896 25C12.875 25 13.25 24.9038 13.5833 24.7308L23.9167 19.2212C24.5833 18.8654 25 18.2019 25 17.4808V7.50962C25 6.78846 24.5833 6.125 23.9167 5.76923Z" fill="#5973F3"/>
<path d="M20.7689 16.1948C20.7689 18.4379 18.8997 19.7256 15.6389 19.7256C11.132 19.7256 10.187 17.6591 10.187 15.9248C10.187 15.7691 10.3116 15.6341 10.4778 15.6341H11.8174C11.9628 15.6341 12.0874 15.7379 12.1082 15.8833C12.3055 17.2333 12.9078 17.9187 15.6389 17.9187C17.8093 17.9187 18.7336 17.4306 18.7336 16.2883C18.7336 15.6237 18.4739 15.1252 15.0989 14.7929C12.2743 14.5125 10.5297 13.8895 10.5297 11.636C10.5297 9.55908 12.2847 8.31293 15.2235 8.31293C18.5259 8.31293 20.1562 9.46562 20.3639 11.9164C20.3743 12.0099 20.3432 12.0929 20.2912 12.1448C20.2289 12.2072 20.1562 12.2487 20.0732 12.2487H18.7336C18.5882 12.2487 18.4739 12.1448 18.4428 12.0098C18.1209 10.5872 17.3316 10.1302 15.2235 10.1302C12.8559 10.1302 12.5755 10.9506 12.5755 11.5737C12.5755 12.3214 12.8974 12.5395 16.1062 12.9549C19.2632 13.3806 20.7689 13.9725 20.7689 16.1948Z" fill="#5973F3"/>
</svg>
