<svg width="25" height="26" viewBox="0 0 25 26" fill="none" xmlns="http://www.w3.org/2000/svg">
<path d="M20.4199 8.16795C20.1563 8.06751 19.8926 7.97265 19.6289 7.88337C19.6729 7.67691 19.7119 7.47045 19.751 7.26398C20.3516 3.93827 19.9561 1.26542 18.623 0.383772C17.3389 -0.458817 15.2441 0.417252 13.125 2.52651C12.915 2.73298 12.71 2.9506 12.5146 3.16822C12.3828 3.02314 12.2461 2.87806 12.1094 2.73856C9.8877 0.484213 7.66113 -0.464397 6.32813 0.422832C5.04883 1.271 4.66797 3.78761 5.20508 6.93476C5.25879 7.24724 5.31738 7.55415 5.38574 7.86663C5.07324 7.96707 4.76562 8.07867 4.47754 8.19585C1.87012 9.22816 0 10.8575 0 12.5427C0 14.2837 1.99219 16.0303 4.70215 17.0905C4.92188 17.1742 5.1416 17.2579 5.36621 17.3304C5.29297 17.6652 5.22949 17.9944 5.1709 18.3348C4.6582 21.4318 5.05859 23.887 6.33789 24.7296C7.65625 25.6001 9.87305 24.7072 12.0312 22.5478C12.2021 22.3748 12.373 22.1962 12.5439 22.0065C12.7588 22.2464 12.9834 22.4752 13.208 22.6984C15.2979 24.7519 17.3633 25.5833 18.6377 24.7407C19.9561 23.8702 20.3857 21.2309 19.8291 18.0168C19.7852 17.7712 19.7363 17.5201 19.6826 17.2635C19.8389 17.2132 19.9902 17.1574 20.1416 17.1016C22.959 16.0358 25 14.3116 25 12.5427C25 10.852 23.0762 9.21142 20.4199 8.16795ZM13.8135 3.43048C15.6299 1.62255 17.3242 0.913877 18.0957 1.42166C18.9209 1.96293 19.2383 4.15031 18.7207 7.02404C18.6865 7.21376 18.6523 7.39791 18.6084 7.58205C17.5244 7.30304 16.4258 7.10216 15.3223 6.99056C14.6875 5.95267 13.9941 4.95942 13.2422 4.02755C13.4326 3.82109 13.6182 3.62579 13.8135 3.43048ZM8.16406 15.4388C8.41309 15.9242 8.66699 16.4097 8.93555 16.884C8.17383 16.7891 7.41699 16.6496 6.66992 16.4655C6.88477 15.662 7.15332 14.8305 7.46582 13.9824C7.69043 14.4734 7.91992 14.9589 8.16406 15.4388ZM6.68457 8.72596C7.38769 8.5474 8.13477 8.40232 8.91113 8.29071C8.65234 8.75386 8.39844 9.22817 8.15918 9.70805C7.91992 10.1824 7.68555 10.6678 7.46582 11.1589C7.1582 10.3274 6.89941 9.51275 6.68457 8.72596ZM8.02246 12.5706C8.34473 11.8006 8.69629 11.0473 9.06738 10.3051C9.43848 9.56297 9.83887 8.84314 10.2588 8.13447C10.9912 8.07309 11.7383 8.03961 12.5 8.03961C13.2617 8.03961 14.0137 8.07309 14.7412 8.13447C15.1562 8.83756 15.5518 9.55739 15.9277 10.294C16.3037 11.0305 16.6553 11.7838 16.9873 12.5483C16.6602 13.3183 16.3086 14.0772 15.9326 14.825C15.5615 15.5671 15.166 16.2869 14.751 17.0012C14.0234 17.0626 13.2666 17.0905 12.5 17.0905C11.7334 17.0905 10.9912 17.0626 10.2734 17.0123C9.84863 16.3037 9.44824 15.5783 9.07227 14.8361C8.69629 14.094 8.34961 13.3407 8.02246 12.5706ZM16.8408 15.4276C17.0898 14.9366 17.3242 14.4399 17.5537 13.9377C17.8662 14.7468 18.1396 15.5671 18.3789 16.4097C17.6221 16.605 16.8555 16.7557 16.084 16.8561C16.3477 16.3874 16.5967 15.9075 16.8408 15.4276ZM17.5439 11.1589C17.3145 10.6678 17.0801 10.1768 16.8359 9.69689C16.5967 9.22259 16.3477 8.75386 16.0889 8.29071C16.875 8.40232 17.627 8.55298 18.3301 8.73712C18.1055 9.56297 17.8418 10.3665 17.5439 11.1589ZM12.5098 4.8813C13.0225 5.51743 13.5059 6.18703 13.9551 6.87896C12.9883 6.82874 12.0166 6.82874 11.0498 6.87896C11.5283 6.15913 12.0215 5.48953 12.5098 4.8813ZM6.8457 1.46072C7.66602 0.913877 9.48731 1.69509 11.4063 3.63695C11.5283 3.75971 11.6504 3.89363 11.7773 4.02755C11.0205 4.95942 10.3223 5.95267 9.68262 6.99056C8.5791 7.10216 7.48535 7.29746 6.40137 7.57089C6.33789 7.2863 6.28418 6.99614 6.23047 6.70598C5.77148 4.00523 6.07422 1.96851 6.8457 1.46072ZM5.64941 16.1698C5.44434 16.1028 5.24414 16.0303 5.04395 15.9521C4.00391 15.5783 2.82227 14.9868 1.96777 14.2112C1.47461 13.8206 1.14258 13.2179 1.0498 12.5427C1.0498 11.5216 2.59277 10.2158 4.81934 9.32861C5.09766 9.217 5.38086 9.11656 5.66406 9.0217C5.99609 10.2326 6.39648 11.4211 6.86035 12.5706C6.3916 13.7369 5.98633 14.9421 5.64941 16.1698ZM11.3428 21.6382C10.5371 22.4808 9.60449 23.1504 8.58887 23.608C8.04687 23.9037 7.42188 23.9316 6.86523 23.6805C6.08887 23.1672 5.7666 21.1974 6.20605 18.5469C6.25977 18.2344 6.31836 17.9219 6.38672 17.615C7.48047 17.8828 8.58398 18.067 9.70215 18.1618C10.3467 19.2053 11.0547 20.2041 11.8115 21.1416C11.6553 21.3146 11.499 21.482 11.3428 21.6382ZM12.5391 20.2823C12.041 19.6685 11.543 18.9877 11.0596 18.2567C11.5283 18.279 12.0117 18.2902 12.5 18.2902C13.0029 18.2902 13.4961 18.279 13.9844 18.2511C13.5352 18.9598 13.0518 19.635 12.5391 20.2823ZM18.9209 21.9563C18.877 22.637 18.584 23.2732 18.1152 23.7028C17.3389 24.2162 15.6836 23.5466 13.8965 21.7945C13.6914 21.5936 13.4863 21.376 13.2764 21.1528C14.0234 20.2097 14.7119 19.2109 15.3369 18.1618C16.4551 18.0558 17.5684 17.8605 18.667 17.5759C18.7158 17.8047 18.7598 18.0335 18.7988 18.2567C19.0381 19.462 19.0771 20.7175 18.9209 21.9563ZM19.8096 15.9577C19.6729 16.0079 19.5361 16.0582 19.3945 16.1028C19.0527 14.8863 18.6328 13.6978 18.1494 12.5427C18.6182 11.4044 19.0137 10.2326 19.3457 9.03286C19.5996 9.11656 19.8438 9.20584 20.0781 9.29513C22.3535 10.1879 23.9502 11.516 23.9502 12.5316C23.9502 13.6253 22.2461 15.037 19.8096 15.9577ZM12.5 15.1207C13.7354 15.1207 14.7363 13.9768 14.7363 12.565C14.7363 11.1533 13.7354 10.0094 12.5 10.0094C11.2646 10.0094 10.2637 11.1533 10.2637 12.565C10.2637 13.9768 11.2646 15.1207 12.5 15.1207Z" fill="#5973F3"/>
</svg>
