<svg width="364" height="41" viewBox="0 0 364 41" fill="none" xmlns="http://www.w3.org/2000/svg">
<rect x="0.5" y="0.5" width="363" height="40" rx="9.5" fill="url(#paint0_linear_104_3)"/>
<rect x="0.5" y="0.5" width="363" height="40" rx="9.5" stroke="url(#paint1_linear_104_3)"/>
<path d="M40.6712 26V16.2H44.4932C45.3518 16.2 46.0845 16.3353 46.6912 16.606C47.2978 16.8767 47.7645 17.2687 48.0912 17.782C48.4178 18.2953 48.5812 18.9067 48.5812 19.616C48.5812 20.3253 48.4178 20.9367 48.0912 21.45C47.7645 21.954 47.2978 22.3413 46.6912 22.612C46.0845 22.8827 45.3518 23.018 44.4932 23.018H41.4412L42.0712 22.374V26H40.6712ZM47.2232 26L44.7312 22.444H46.2292L48.7492 26H47.2232ZM42.0712 22.514L41.4412 21.828H44.4512C45.3472 21.828 46.0238 21.6367 46.4812 21.254C46.9478 20.862 47.1812 20.316 47.1812 19.616C47.1812 18.916 46.9478 18.3747 46.4812 17.992C46.0238 17.6093 45.3472 17.418 44.4512 17.418H41.4412L42.0712 16.718V22.514ZM53.951 26.084C53.1577 26.084 52.4577 25.9207 51.851 25.594C51.2537 25.2673 50.787 24.8193 50.451 24.25C50.1244 23.6807 49.961 23.0273 49.961 22.29C49.961 21.5527 50.1197 20.8993 50.437 20.33C50.7637 19.7607 51.207 19.3173 51.767 19C52.3364 18.6733 52.9757 18.51 53.685 18.51C54.4037 18.51 55.0384 18.6687 55.589 18.986C56.1397 19.3033 56.569 19.7513 56.877 20.33C57.1944 20.8993 57.353 21.5667 57.353 22.332C57.353 22.388 57.3484 22.4533 57.339 22.528C57.339 22.6027 57.3344 22.6727 57.325 22.738H51.011V21.772H56.625L56.079 22.108C56.0884 21.632 55.9904 21.2073 55.785 20.834C55.5797 20.4607 55.295 20.1713 54.931 19.966C54.5764 19.7513 54.161 19.644 53.685 19.644C53.2184 19.644 52.803 19.7513 52.439 19.966C52.075 20.1713 51.7904 20.4653 51.585 20.848C51.3797 21.2213 51.277 21.6507 51.277 22.136V22.36C51.277 22.8547 51.389 23.298 51.613 23.69C51.8464 24.0727 52.1684 24.3713 52.579 24.586C52.9897 24.8007 53.461 24.908 53.993 24.908C54.4317 24.908 54.8284 24.8333 55.183 24.684C55.547 24.5347 55.8644 24.3107 56.135 24.012L56.877 24.88C56.541 25.272 56.121 25.5707 55.617 25.776C55.1224 25.9813 54.567 26.084 53.951 26.084ZM61.3473 26.084C60.7313 26.084 60.1433 26 59.5833 25.832C59.0326 25.664 58.5986 25.4587 58.2813 25.216L58.8413 24.152C59.1586 24.3667 59.5506 24.5487 60.0173 24.698C60.484 24.8473 60.96 24.922 61.4453 24.922C62.0706 24.922 62.5186 24.8333 62.7893 24.656C63.0693 24.4787 63.2093 24.2313 63.2093 23.914C63.2093 23.6807 63.1253 23.4987 62.9573 23.368C62.7893 23.2373 62.5653 23.1393 62.2853 23.074C62.0146 23.0087 61.7113 22.9527 61.3753 22.906C61.0393 22.85 60.7033 22.7847 60.3673 22.71C60.0313 22.626 59.7233 22.514 59.4433 22.374C59.1633 22.2247 58.9393 22.024 58.7713 21.772C58.6033 21.5107 58.5193 21.1653 58.5193 20.736C58.5193 20.288 58.6453 19.896 58.8973 19.56C59.1493 19.224 59.504 18.9673 59.9613 18.79C60.428 18.6033 60.9786 18.51 61.6133 18.51C62.0986 18.51 62.5886 18.5707 63.0833 18.692C63.5873 18.804 63.998 18.9673 64.3153 19.182L63.7413 20.246C63.4053 20.022 63.0553 19.868 62.6913 19.784C62.3273 19.7 61.9633 19.658 61.5993 19.658C61.0113 19.658 60.5726 19.756 60.2833 19.952C59.994 20.1387 59.8493 20.3813 59.8493 20.68C59.8493 20.932 59.9333 21.128 60.1013 21.268C60.2786 21.3987 60.5026 21.5013 60.7733 21.576C61.0533 21.6507 61.3613 21.716 61.6973 21.772C62.0333 21.8187 62.3693 21.884 62.7053 21.968C63.0413 22.0427 63.3446 22.15 63.6153 22.29C63.8953 22.43 64.1193 22.626 64.2873 22.878C64.4646 23.13 64.5533 23.466 64.5533 23.886C64.5533 24.334 64.4226 24.7213 64.1613 25.048C63.9 25.3747 63.5313 25.6313 63.0553 25.818C62.5793 25.9953 62.01 26.084 61.3473 26.084ZM69.355 26.084C68.7203 26.084 68.1603 25.9673 67.675 25.734C67.199 25.5007 66.8257 25.146 66.555 24.67C66.2937 24.1847 66.163 23.578 66.163 22.85V18.58H67.507V22.696C67.507 23.424 67.6797 23.97 68.025 24.334C68.3797 24.698 68.8743 24.88 69.509 24.88C69.9757 24.88 70.3817 24.7867 70.727 24.6C71.0723 24.404 71.3383 24.124 71.525 23.76C71.7117 23.3867 71.805 22.9387 71.805 22.416V18.58H73.149V26H71.875V23.998L72.085 24.53C71.8423 25.0247 71.4783 25.4073 70.993 25.678C70.5077 25.9487 69.9617 26.084 69.355 26.084ZM84.9896 18.51C85.5869 18.51 86.1143 18.6267 86.5716 18.86C87.0289 19.0933 87.3836 19.448 87.6356 19.924C87.8969 20.4 88.0276 21.002 88.0276 21.73V26H86.6836V21.884C86.6836 21.1653 86.5156 20.624 86.1796 20.26C85.8436 19.896 85.3723 19.714 84.7656 19.714C84.3176 19.714 83.9256 19.8073 83.5896 19.994C83.2536 20.1807 82.9923 20.456 82.8056 20.82C82.6283 21.184 82.5396 21.6367 82.5396 22.178V26H81.1956V21.884C81.1956 21.1653 81.0276 20.624 80.6916 20.26C80.3649 19.896 79.8936 19.714 79.2776 19.714C78.8389 19.714 78.4516 19.8073 78.1156 19.994C77.7796 20.1807 77.5183 20.456 77.3316 20.82C77.1449 21.184 77.0516 21.6367 77.0516 22.178V26H75.7076V18.58H76.9956V20.554L76.7856 20.05C77.0189 19.5647 77.3783 19.1867 77.8636 18.916C78.3489 18.6453 78.9136 18.51 79.5576 18.51C80.2669 18.51 80.8783 18.6873 81.3916 19.042C81.9049 19.3873 82.2409 19.9147 82.3996 20.624L81.8536 20.4C82.0776 19.8307 82.4696 19.3733 83.0296 19.028C83.5896 18.6827 84.2429 18.51 84.9896 18.51ZM93.8046 26.084C93.0112 26.084 92.3112 25.9207 91.7046 25.594C91.1072 25.2673 90.6406 24.8193 90.3046 24.25C89.9779 23.6807 89.8146 23.0273 89.8146 22.29C89.8146 21.5527 89.9732 20.8993 90.2906 20.33C90.6172 19.7607 91.0606 19.3173 91.6206 19C92.1899 18.6733 92.8292 18.51 93.5386 18.51C94.2572 18.51 94.8919 18.6687 95.4426 18.986C95.9932 19.3033 96.4226 19.7513 96.7306 20.33C97.0479 20.8993 97.2066 21.5667 97.2066 22.332C97.2066 22.388 97.2019 22.4533 97.1926 22.528C97.1926 22.6027 97.1879 22.6727 97.1786 22.738H90.8646V21.772H96.4786L95.9326 22.108C95.9419 21.632 95.8439 21.2073 95.6386 20.834C95.4332 20.4607 95.1486 20.1713 94.7846 19.966C94.4299 19.7513 94.0146 19.644 93.5386 19.644C93.0719 19.644 92.6566 19.7513 92.2926 19.966C91.9286 20.1713 91.6439 20.4653 91.4386 20.848C91.2332 21.2213 91.1306 21.6507 91.1306 22.136V22.36C91.1306 22.8547 91.2426 23.298 91.4666 23.69C91.6999 24.0727 92.0219 24.3713 92.4326 24.586C92.8432 24.8007 93.3146 24.908 93.8466 24.908C94.2852 24.908 94.6819 24.8333 95.0366 24.684C95.4006 24.5347 95.7179 24.3107 95.9886 24.012L96.7306 24.88C96.3946 25.272 95.9746 25.5707 95.4706 25.776C94.9759 25.9813 94.4206 26.084 93.8046 26.084Z" fill="#E7F0FF"/>
<path d="M340.354 21.3536C340.549 21.1583 340.549 20.8417 340.354 20.6464L337.172 17.4645C336.976 17.2692 336.66 17.2692 336.464 17.4645C336.269 17.6597 336.269 17.9763 336.464 18.1716L339.293 21L336.464 23.8284C336.269 24.0237 336.269 24.3403 336.464 24.5355C336.66 24.7308 336.976 24.7308 337.172 24.5355L340.354 21.3536ZM244 21.5H340V20.5H244V21.5Z" fill="#5973F3"/>
<defs>
<linearGradient id="paint0_linear_104_3" x1="0" y1="20.5" x2="364" y2="20.5" gradientUnits="userSpaceOnUse">
<stop stop-color="#2B2D32"/>
<stop offset="1" stop-color="#282C37"/>
</linearGradient>
<linearGradient id="paint1_linear_104_3" x1="183.13" y1="-1.87143e-08" x2="183.13" y2="41" gradientUnits="userSpaceOnUse">
<stop stop-color="#3E496F" stop-opacity="0.5"/>
<stop offset="1" stop-color="#323645" stop-opacity="0.2"/>
</linearGradient>
</defs>
</svg>
