<svg width="14" height="8" viewBox="0 0 14 8" fill="none" xmlns="http://www.w3.org/2000/svg">
<path d="M0.171875 3.14062H0.435547C0.462891 3.39323 0.552083 3.57422 0.703125 3.68359C0.852865 3.79297 1.03971 3.84635 1.26367 3.84375C1.52279 3.84115 1.71094 3.77995 1.82812 3.66016C1.9401 3.54557 1.99609 3.4082 1.99609 3.24805C1.99609 3.13607 1.97201 3.04427 1.92383 2.97266C1.87565 2.90234 1.80924 2.84635 1.72461 2.80469C1.64128 2.75911 1.54883 2.72266 1.44727 2.69531C1.3431 2.66927 1.23372 2.64388 1.11914 2.61914C1.00977 2.5931 0.903646 2.5625 0.800781 2.52734C0.696615 2.49349 0.601562 2.44727 0.515625 2.38867C0.436198 2.33008 0.371094 2.25391 0.320312 2.16016C0.266927 2.06901 0.240234 1.95443 0.240234 1.81641C0.240234 1.60807 0.322917 1.42773 0.488281 1.27539C0.653646 1.12695 0.896484 1.05013 1.2168 1.04492C1.54102 1.04753 1.78451 1.13151 1.94727 1.29688C2.10742 1.45964 2.1862 1.66211 2.18359 1.9043H1.92383C1.92122 1.68555 1.85026 1.52409 1.71094 1.41992C1.57292 1.32357 1.4082 1.27539 1.2168 1.27539C0.942057 1.2819 0.75 1.35026 0.640625 1.48047C0.53125 1.61068 0.488281 1.75456 0.511719 1.91211C0.527344 2.00326 0.566406 2.07682 0.628906 2.13281C0.6875 2.19141 0.759115 2.23763 0.84375 2.27148C0.929688 2.30664 1.02409 2.33594 1.12695 2.35938C1.22852 2.38411 1.33268 2.4082 1.43945 2.43164C1.54883 2.45378 1.65299 2.48177 1.75195 2.51562C1.85091 2.55078 1.9388 2.59896 2.01562 2.66016C2.09375 2.71875 2.15495 2.79362 2.19922 2.88477C2.24479 2.97982 2.26758 3.09701 2.26758 3.23633C2.25716 3.78841 1.9069 4.06836 1.2168 4.07617C0.909505 4.07617 0.661458 3.9974 0.472656 3.83984C0.27474 3.6849 0.174479 3.45182 0.171875 3.14062ZM3.05664 4H2.78516V1.12109H3.05664V2.61133L4.5332 1.12109H4.8418L3.70508 2.26758L5.04102 4H4.70898L3.50977 2.43555L3.05664 2.88867V4ZM5.80469 4H5.5332V1.12109H5.80469V4ZM8.36719 4H6.55078V1.12109H6.82227V3.76758H8.36719V4ZM10.5938 4H8.77734V1.12109H9.04883V3.76758H10.5938V4ZM10.8516 3.14062H11.1152C11.1426 3.39323 11.2318 3.57422 11.3828 3.68359C11.5326 3.79297 11.7194 3.84635 11.9434 3.84375C12.2025 3.84115 12.3906 3.77995 12.5078 3.66016C12.6198 3.54557 12.6758 3.4082 12.6758 3.24805C12.6758 3.13607 12.6517 3.04427 12.6035 2.97266C12.5553 2.90234 12.4889 2.84635 12.4043 2.80469C12.321 2.75911 12.2285 2.72266 12.127 2.69531C12.0228 2.66927 11.9134 2.64388 11.7988 2.61914C11.6895 2.5931 11.5833 2.5625 11.4805 2.52734C11.3763 2.49349 11.2812 2.44727 11.1953 2.38867C11.1159 2.33008 11.0508 2.25391 11 2.16016C10.9466 2.06901 10.9199 1.95443 10.9199 1.81641C10.9199 1.60807 11.0026 1.42773 11.168 1.27539C11.3333 1.12695 11.5762 1.05013 11.8965 1.04492C12.2207 1.04753 12.4642 1.13151 12.627 1.29688C12.7871 1.45964 12.8659 1.66211 12.8633 1.9043H12.6035C12.6009 1.68555 12.5299 1.52409 12.3906 1.41992C12.2526 1.32357 12.0879 1.27539 11.8965 1.27539C11.6217 1.2819 11.4297 1.35026 11.3203 1.48047C11.2109 1.61068 11.168 1.75456 11.1914 1.91211C11.207 2.00326 11.2461 2.07682 11.3086 2.13281C11.3672 2.19141 11.4388 2.23763 11.5234 2.27148C11.6094 2.30664 11.7038 2.33594 11.8066 2.35938C11.9082 2.38411 12.0124 2.4082 12.1191 2.43164C12.2285 2.45378 12.3327 2.48177 12.4316 2.51562C12.5306 2.55078 12.6185 2.59896 12.6953 2.66016C12.7734 2.71875 12.8346 2.79362 12.8789 2.88477C12.9245 2.97982 12.9473 3.09701 12.9473 3.23633C12.9368 3.78841 12.5866 4.06836 11.8965 4.07617C11.5892 4.07617 11.3411 3.9974 11.1523 3.83984C10.9544 3.6849 10.8542 3.45182 10.8516 3.14062Z" fill="white"/>
<path d="M5 6L6.91667 7.43704L9 6V6.56296L6.91667 8L5 6.56296V6Z" fill="#2E4D7E"/>
</svg>
