<svg width="432" height="41" viewBox="0 0 432 41" fill="none" xmlns="http://www.w3.org/2000/svg">
<rect x="0.5" y="0.5" width="431" height="40" rx="9.5" fill="url(#paint0_linear_74_93)"/>
<rect x="0.5" y="0.5" width="431" height="40" rx="9.5" stroke="url(#paint1_linear_74_93)"/>
<path d="M36.4578 26.112C35.7112 26.112 34.9972 26 34.3158 25.776C33.6345 25.5427 33.0978 25.244 32.7058 24.88L33.2238 23.788C33.5972 24.1147 34.0732 24.3853 34.6518 24.6C35.2305 24.8147 35.8325 24.922 36.4578 24.922C37.0272 24.922 37.4892 24.8567 37.8438 24.726C38.1985 24.5953 38.4598 24.418 38.6278 24.194C38.7958 23.9607 38.8798 23.6993 38.8798 23.41C38.8798 23.074 38.7678 22.8033 38.5438 22.598C38.3292 22.3927 38.0445 22.2293 37.6898 22.108C37.3445 21.9773 36.9618 21.8653 36.5418 21.772C36.1218 21.6787 35.6972 21.5713 35.2678 21.45C34.8478 21.3193 34.4605 21.156 34.1058 20.96C33.7605 20.764 33.4805 20.5027 33.2658 20.176C33.0512 19.84 32.9438 19.4107 32.9438 18.888C32.9438 18.384 33.0745 17.922 33.3358 17.502C33.6065 17.0727 34.0172 16.732 34.5678 16.48C35.1278 16.2187 35.8372 16.088 36.6958 16.088C37.2652 16.088 37.8298 16.1627 38.3898 16.312C38.9498 16.4613 39.4352 16.676 39.8458 16.956L39.3838 18.076C38.9638 17.796 38.5205 17.5953 38.0538 17.474C37.5872 17.3433 37.1345 17.278 36.6958 17.278C36.1452 17.278 35.6925 17.348 35.3378 17.488C34.9832 17.628 34.7218 17.8147 34.5538 18.048C34.3952 18.2813 34.3158 18.5427 34.3158 18.832C34.3158 19.1773 34.4232 19.4527 34.6378 19.658C34.8618 19.8633 35.1465 20.0267 35.4918 20.148C35.8465 20.2693 36.2338 20.3813 36.6538 20.484C37.0738 20.5773 37.4938 20.6847 37.9138 20.806C38.3432 20.9273 38.7305 21.086 39.0758 21.282C39.4305 21.478 39.7152 21.7393 39.9298 22.066C40.1445 22.3927 40.2518 22.8127 40.2518 23.326C40.2518 23.8207 40.1165 24.2827 39.8458 24.712C39.5752 25.132 39.1552 25.4727 38.5858 25.734C38.0258 25.986 37.3165 26.112 36.4578 26.112ZM45.4051 26.084C44.6118 26.084 43.9118 25.9207 43.3051 25.594C42.7078 25.2673 42.2411 24.8193 41.9051 24.25C41.5785 23.6807 41.4151 23.0273 41.4151 22.29C41.4151 21.5527 41.5738 20.8993 41.8911 20.33C42.2178 19.7607 42.6611 19.3173 43.2211 19C43.7905 18.6733 44.4298 18.51 45.1391 18.51C45.8578 18.51 46.4925 18.6687 47.0431 18.986C47.5938 19.3033 48.0231 19.7513 48.3311 20.33C48.6485 20.8993 48.8071 21.5667 48.8071 22.332C48.8071 22.388 48.8025 22.4533 48.7931 22.528C48.7931 22.6027 48.7885 22.6727 48.7791 22.738H42.4651V21.772H48.0791L47.5331 22.108C47.5425 21.632 47.4445 21.2073 47.2391 20.834C47.0338 20.4607 46.7491 20.1713 46.3851 19.966C46.0305 19.7513 45.6151 19.644 45.1391 19.644C44.6725 19.644 44.2571 19.7513 43.8931 19.966C43.5291 20.1713 43.2445 20.4653 43.0391 20.848C42.8338 21.2213 42.7311 21.6507 42.7311 22.136V22.36C42.7311 22.8547 42.8431 23.298 43.0671 23.69C43.3005 24.0727 43.6225 24.3713 44.0331 24.586C44.4438 24.8007 44.9151 24.908 45.4471 24.908C45.8858 24.908 46.2825 24.8333 46.6371 24.684C47.0011 24.5347 47.3185 24.3107 47.5891 24.012L48.3311 24.88C47.9951 25.272 47.5751 25.5707 47.0711 25.776C46.5765 25.9813 46.0211 26.084 45.4051 26.084ZM53.9774 26.084C53.1841 26.084 52.4841 25.9207 51.8774 25.594C51.2801 25.2673 50.8134 24.8193 50.4774 24.25C50.1507 23.6807 49.9874 23.0273 49.9874 22.29C49.9874 21.5527 50.1461 20.8993 50.4634 20.33C50.7901 19.7607 51.2334 19.3173 51.7934 19C52.3627 18.6733 53.0021 18.51 53.7114 18.51C54.4301 18.51 55.0647 18.6687 55.6154 18.986C56.1661 19.3033 56.5954 19.7513 56.9034 20.33C57.2207 20.8993 57.3794 21.5667 57.3794 22.332C57.3794 22.388 57.3747 22.4533 57.3654 22.528C57.3654 22.6027 57.3607 22.6727 57.3514 22.738H51.0374V21.772H56.6514L56.1054 22.108C56.1147 21.632 56.0167 21.2073 55.8114 20.834C55.6061 20.4607 55.3214 20.1713 54.9574 19.966C54.6027 19.7513 54.1874 19.644 53.7114 19.644C53.2447 19.644 52.8294 19.7513 52.4654 19.966C52.1014 20.1713 51.8167 20.4653 51.6114 20.848C51.4061 21.2213 51.3034 21.6507 51.3034 22.136V22.36C51.3034 22.8547 51.4154 23.298 51.6394 23.69C51.8727 24.0727 52.1947 24.3713 52.6054 24.586C53.0161 24.8007 53.4874 24.908 54.0194 24.908C54.4581 24.908 54.8547 24.8333 55.2094 24.684C55.5734 24.5347 55.8907 24.3107 56.1614 24.012L56.9034 24.88C56.5674 25.272 56.1474 25.5707 55.6434 25.776C55.1487 25.9813 54.5934 26.084 53.9774 26.084ZM63.2014 26V16.2H67.3314C68.3768 16.2 69.2961 16.4053 70.0894 16.816C70.8921 17.2267 71.5128 17.8007 71.9514 18.538C72.3994 19.2753 72.6234 20.1293 72.6234 21.1C72.6234 22.0707 72.3994 22.9247 71.9514 23.662C71.5128 24.3993 70.8921 24.9733 70.0894 25.384C69.2961 25.7947 68.3768 26 67.3314 26H63.2014ZM64.6014 24.782H67.2474C68.0594 24.782 68.7594 24.628 69.3474 24.32C69.9448 24.012 70.4068 23.5827 70.7334 23.032C71.0601 22.472 71.2234 21.828 71.2234 21.1C71.2234 20.3627 71.0601 19.7187 70.7334 19.168C70.4068 18.6173 69.9448 18.188 69.3474 17.88C68.7594 17.572 68.0594 17.418 67.2474 17.418H64.6014V24.782ZM77.8759 26.084C77.0825 26.084 76.3825 25.9207 75.7759 25.594C75.1785 25.2673 74.7119 24.8193 74.3759 24.25C74.0492 23.6807 73.8859 23.0273 73.8859 22.29C73.8859 21.5527 74.0445 20.8993 74.3619 20.33C74.6885 19.7607 75.1319 19.3173 75.6919 19C76.2612 18.6733 76.9005 18.51 77.6099 18.51C78.3285 18.51 78.9632 18.6687 79.5139 18.986C80.0645 19.3033 80.4939 19.7513 80.8019 20.33C81.1192 20.8993 81.2779 21.5667 81.2779 22.332C81.2779 22.388 81.2732 22.4533 81.2639 22.528C81.2639 22.6027 81.2592 22.6727 81.2499 22.738H74.9359V21.772H80.5499L80.0039 22.108C80.0132 21.632 79.9152 21.2073 79.7099 20.834C79.5045 20.4607 79.2199 20.1713 78.8559 19.966C78.5012 19.7513 78.0859 19.644 77.6099 19.644C77.1432 19.644 76.7279 19.7513 76.3639 19.966C75.9999 20.1713 75.7152 20.4653 75.5099 20.848C75.3045 21.2213 75.2019 21.6507 75.2019 22.136V22.36C75.2019 22.8547 75.3139 23.298 75.5379 23.69C75.7712 24.0727 76.0932 24.3713 76.5039 24.586C76.9145 24.8007 77.3859 24.908 77.9179 24.908C78.3565 24.908 78.7532 24.8333 79.1079 24.684C79.4719 24.5347 79.7892 24.3107 80.0599 24.012L80.8019 24.88C80.4659 25.272 80.0459 25.5707 79.5419 25.776C79.0472 25.9813 78.4919 26.084 77.8759 26.084ZM85.6921 26.084C84.9455 26.084 84.3668 25.8833 83.9561 25.482C83.5455 25.0807 83.3401 24.5067 83.3401 23.76V16.956H84.6841V23.704C84.6841 24.1053 84.7821 24.4133 84.9781 24.628C85.1835 24.8427 85.4728 24.95 85.8461 24.95C86.2661 24.95 86.6161 24.8333 86.8961 24.6L87.3161 25.566C87.1108 25.7433 86.8635 25.874 86.5741 25.958C86.2941 26.042 86.0001 26.084 85.6921 26.084ZM82.0801 19.686V18.58H86.8121V19.686H82.0801ZM93.547 26V24.432L93.477 24.138V21.464C93.477 20.8947 93.309 20.456 92.973 20.148C92.6463 19.8307 92.1517 19.672 91.489 19.672C91.0503 19.672 90.621 19.7467 90.201 19.896C89.781 20.036 89.4263 20.2273 89.137 20.47L88.577 19.462C88.9597 19.154 89.417 18.9207 89.949 18.762C90.4903 18.594 91.055 18.51 91.643 18.51C92.6603 18.51 93.4443 18.7573 93.995 19.252C94.5457 19.7467 94.821 20.5027 94.821 21.52V26H93.547ZM91.111 26.084C90.5603 26.084 90.075 25.9907 89.655 25.804C89.2443 25.6173 88.927 25.3607 88.703 25.034C88.479 24.698 88.367 24.32 88.367 23.9C88.367 23.4987 88.4603 23.1347 88.647 22.808C88.843 22.4813 89.1557 22.22 89.585 22.024C90.0237 21.828 90.6117 21.73 91.349 21.73H93.701V22.696H91.405C90.733 22.696 90.2803 22.808 90.047 23.032C89.8137 23.256 89.697 23.5267 89.697 23.844C89.697 24.208 89.8417 24.502 90.131 24.726C90.4203 24.9407 90.8217 25.048 91.335 25.048C91.839 25.048 92.2777 24.936 92.651 24.712C93.0337 24.488 93.309 24.1613 93.477 23.732L93.743 24.656C93.5657 25.0947 93.253 25.4447 92.805 25.706C92.357 25.958 91.7923 26.084 91.111 26.084ZM97.3082 26V18.58H98.6522V26H97.3082ZM97.9802 17.152C97.7188 17.152 97.4995 17.068 97.3222 16.9C97.1542 16.732 97.0702 16.5267 97.0702 16.284C97.0702 16.032 97.1542 15.822 97.3222 15.654C97.4995 15.486 97.7188 15.402 97.9802 15.402C98.2415 15.402 98.4562 15.486 98.6242 15.654C98.8015 15.8127 98.8902 16.0133 98.8902 16.256C98.8902 16.508 98.8062 16.7227 98.6382 16.9C98.4702 17.068 98.2508 17.152 97.9802 17.152ZM101.218 26V15.612H102.562V26H101.218ZM107.256 26.084C106.64 26.084 106.052 26 105.492 25.832C104.942 25.664 104.508 25.4587 104.19 25.216L104.75 24.152C105.068 24.3667 105.46 24.5487 105.926 24.698C106.393 24.8473 106.869 24.922 107.354 24.922C107.98 24.922 108.428 24.8333 108.698 24.656C108.978 24.4787 109.118 24.2313 109.118 23.914C109.118 23.6807 109.034 23.4987 108.866 23.368C108.698 23.2373 108.474 23.1393 108.194 23.074C107.924 23.0087 107.62 22.9527 107.284 22.906C106.948 22.85 106.612 22.7847 106.276 22.71C105.94 22.626 105.632 22.514 105.352 22.374C105.072 22.2247 104.848 22.024 104.68 21.772C104.512 21.5107 104.428 21.1653 104.428 20.736C104.428 20.288 104.554 19.896 104.806 19.56C105.058 19.224 105.413 18.9673 105.87 18.79C106.337 18.6033 106.888 18.51 107.522 18.51C108.008 18.51 108.498 18.5707 108.992 18.692C109.496 18.804 109.907 18.9673 110.224 19.182L109.65 20.246C109.314 20.022 108.964 19.868 108.6 19.784C108.236 19.7 107.872 19.658 107.508 19.658C106.92 19.658 106.482 19.756 106.192 19.952C105.903 20.1387 105.758 20.3813 105.758 20.68C105.758 20.932 105.842 21.128 106.01 21.268C106.188 21.3987 106.412 21.5013 106.682 21.576C106.962 21.6507 107.27 21.716 107.606 21.772C107.942 21.8187 108.278 21.884 108.614 21.968C108.95 22.0427 109.254 22.15 109.524 22.29C109.804 22.43 110.028 22.626 110.196 22.878C110.374 23.13 110.462 23.466 110.462 23.886C110.462 24.334 110.332 24.7213 110.07 25.048C109.809 25.3747 109.44 25.6313 108.964 25.818C108.488 25.9953 107.919 26.084 107.256 26.084Z" fill="#E7F0FF"/>
<path d="M408.354 21.3536C408.549 21.1583 408.549 20.8417 408.354 20.6464L405.172 17.4645C404.976 17.2692 404.66 17.2692 404.464 17.4645C404.269 17.6597 404.269 17.9763 404.464 18.1716L407.293 21L404.464 23.8284C404.269 24.0237 404.269 24.3403 404.464 24.5355C404.66 24.7308 404.976 24.7308 405.172 24.5355L408.354 21.3536ZM312 21.5H408V20.5H312V21.5Z" fill="#5973F3"/>
<defs>
<linearGradient id="paint0_linear_74_93" x1="0" y1="20.5" x2="432" y2="20.5" gradientUnits="userSpaceOnUse">
<stop stop-color="#2B2D32"/>
<stop offset="1" stop-color="#282C37"/>
</linearGradient>
<linearGradient id="paint1_linear_74_93" x1="217.342" y1="-1.87143e-08" x2="217.342" y2="41" gradientUnits="userSpaceOnUse">
<stop stop-color="#3E496F" stop-opacity="0.5"/>
<stop offset="1" stop-color="#323645" stop-opacity="0.2"/>
</linearGradient>
</defs>
</svg>
