<svg width="364" height="41" viewBox="0 0 364 41" fill="none" xmlns="http://www.w3.org/2000/svg">
<rect x="0.5" y="0.5" width="363" height="40" rx="9.5" fill="url(#paint0_linear_105_7)"/>
<rect x="0.5" y="0.5" width="363" height="40" rx="9.5" stroke="url(#paint1_linear_105_7)"/>
<path d="M44.4881 26.112C43.7414 26.112 43.0274 26 42.3461 25.776C41.6648 25.5427 41.1281 25.244 40.7361 24.88L41.2541 23.788C41.6274 24.1147 42.1034 24.3853 42.6821 24.6C43.2608 24.8147 43.8628 24.922 44.4881 24.922C45.0574 24.922 45.5194 24.8567 45.8741 24.726C46.2288 24.5953 46.4901 24.418 46.6581 24.194C46.8261 23.9607 46.9101 23.6993 46.9101 23.41C46.9101 23.074 46.7981 22.8033 46.5741 22.598C46.3594 22.3927 46.0748 22.2293 45.7201 22.108C45.3748 21.9773 44.9921 21.8653 44.5721 21.772C44.1521 21.6787 43.7274 21.5713 43.2981 21.45C42.8781 21.3193 42.4908 21.156 42.1361 20.96C41.7908 20.764 41.5108 20.5027 41.2961 20.176C41.0814 19.84 40.9741 19.4107 40.9741 18.888C40.9741 18.384 41.1048 17.922 41.3661 17.502C41.6368 17.0727 42.0474 16.732 42.5981 16.48C43.1581 16.2187 43.8674 16.088 44.7261 16.088C45.2954 16.088 45.8601 16.1627 46.4201 16.312C46.9801 16.4613 47.4654 16.676 47.8761 16.956L47.4141 18.076C46.9941 17.796 46.5508 17.5953 46.0841 17.474C45.6174 17.3433 45.1648 17.278 44.7261 17.278C44.1754 17.278 43.7228 17.348 43.3681 17.488C43.0134 17.628 42.7521 17.8147 42.5841 18.048C42.4254 18.2813 42.3461 18.5427 42.3461 18.832C42.3461 19.1773 42.4534 19.4527 42.6681 19.658C42.8921 19.8633 43.1768 20.0267 43.5221 20.148C43.8768 20.2693 44.2641 20.3813 44.6841 20.484C45.1041 20.5773 45.5241 20.6847 45.9441 20.806C46.3734 20.9273 46.7608 21.086 47.1061 21.282C47.4608 21.478 47.7454 21.7393 47.9601 22.066C48.1748 22.3927 48.2821 22.8127 48.2821 23.326C48.2821 23.8207 48.1468 24.2827 47.8761 24.712C47.6054 25.132 47.1854 25.4727 46.6161 25.734C46.0561 25.986 45.3468 26.112 44.4881 26.112ZM53.4354 26.084C52.6421 26.084 51.9421 25.9207 51.3354 25.594C50.7381 25.2673 50.2714 24.8193 49.9354 24.25C49.6088 23.6807 49.4454 23.0273 49.4454 22.29C49.4454 21.5527 49.6041 20.8993 49.9214 20.33C50.2481 19.7607 50.6914 19.3173 51.2514 19C51.8208 18.6733 52.4601 18.51 53.1694 18.51C53.8881 18.51 54.5228 18.6687 55.0734 18.986C55.6241 19.3033 56.0534 19.7513 56.3614 20.33C56.6788 20.8993 56.8374 21.5667 56.8374 22.332C56.8374 22.388 56.8328 22.4533 56.8234 22.528C56.8234 22.6027 56.8188 22.6727 56.8094 22.738H50.4954V21.772H56.1094L55.5634 22.108C55.5728 21.632 55.4748 21.2073 55.2694 20.834C55.0641 20.4607 54.7794 20.1713 54.4154 19.966C54.0608 19.7513 53.6454 19.644 53.1694 19.644C52.7028 19.644 52.2874 19.7513 51.9234 19.966C51.5594 20.1713 51.2748 20.4653 51.0694 20.848C50.8641 21.2213 50.7614 21.6507 50.7614 22.136V22.36C50.7614 22.8547 50.8734 23.298 51.0974 23.69C51.3308 24.0727 51.6528 24.3713 52.0634 24.586C52.4741 24.8007 52.9454 24.908 53.4774 24.908C53.9161 24.908 54.3128 24.8333 54.6674 24.684C55.0314 24.5347 55.3488 24.3107 55.6194 24.012L56.3614 24.88C56.0254 25.272 55.6054 25.5707 55.1014 25.776C54.6068 25.9813 54.0514 26.084 53.4354 26.084ZM62.6657 18.51C63.2724 18.51 63.8044 18.6267 64.2617 18.86C64.7284 19.0933 65.0924 19.448 65.3537 19.924C65.615 20.4 65.7457 21.002 65.7457 21.73V26H64.4017V21.884C64.4017 21.1653 64.2244 20.624 63.8697 20.26C63.5244 19.896 63.0344 19.714 62.3997 19.714C61.9237 19.714 61.5084 19.8073 61.1537 19.994C60.799 20.1807 60.5237 20.456 60.3277 20.82C60.141 21.184 60.0477 21.6367 60.0477 22.178V26H58.7037V18.58H59.9917V20.582L59.7817 20.05C60.0244 19.5647 60.3977 19.1867 60.9017 18.916C61.4057 18.6453 61.9937 18.51 62.6657 18.51ZM71.299 26.084C70.5803 26.084 69.9363 25.9253 69.367 25.608C68.807 25.2907 68.3637 24.8473 68.037 24.278C67.7103 23.7087 67.547 23.046 67.547 22.29C67.547 21.534 67.7103 20.876 68.037 20.316C68.3637 19.7467 68.807 19.3033 69.367 18.986C69.9363 18.6687 70.5803 18.51 71.299 18.51C71.9243 18.51 72.489 18.65 72.993 18.93C73.497 19.21 73.8983 19.63 74.197 20.19C74.505 20.75 74.659 21.45 74.659 22.29C74.659 23.13 74.5097 23.83 74.211 24.39C73.9217 24.95 73.525 25.3747 73.021 25.664C72.517 25.944 71.943 26.084 71.299 26.084ZM71.411 24.908C71.8777 24.908 72.2977 24.8007 72.671 24.586C73.0537 24.3713 73.3523 24.068 73.567 23.676C73.791 23.2747 73.903 22.8127 73.903 22.29C73.903 21.758 73.791 21.3007 73.567 20.918C73.3523 20.526 73.0537 20.2227 72.671 20.008C72.2977 19.7933 71.8777 19.686 71.411 19.686C70.935 19.686 70.5103 19.7933 70.137 20.008C69.7637 20.2227 69.465 20.526 69.241 20.918C69.017 21.3007 68.905 21.758 68.905 22.29C68.905 22.8127 69.017 23.2747 69.241 23.676C69.465 24.068 69.7637 24.3713 70.137 24.586C70.5103 24.8007 70.935 24.908 71.411 24.908ZM73.945 26V23.998L74.029 22.276L73.889 20.554V15.612H75.233V26H73.945ZM81.7317 26V16.2H82.8797L87.2757 23.606H86.6597L90.9997 16.2H92.1477L92.1617 26H90.8177L90.8037 18.314H91.1257L87.2617 24.81H86.6177L82.7257 18.314H83.0757V26H81.7317ZM98.2108 26.084C97.4175 26.084 96.7175 25.9207 96.1108 25.594C95.5135 25.2673 95.0468 24.8193 94.7108 24.25C94.3841 23.6807 94.2208 23.0273 94.2208 22.29C94.2208 21.5527 94.3795 20.8993 94.6968 20.33C95.0235 19.7607 95.4668 19.3173 96.0268 19C96.5961 18.6733 97.2355 18.51 97.9448 18.51C98.6635 18.51 99.2981 18.6687 99.8488 18.986C100.399 19.3033 100.829 19.7513 101.137 20.33C101.454 20.8993 101.613 21.5667 101.613 22.332C101.613 22.388 101.608 22.4533 101.599 22.528C101.599 22.6027 101.594 22.6727 101.585 22.738H95.2708V21.772H100.885L100.339 22.108C100.348 21.632 100.25 21.2073 100.045 20.834C99.8395 20.4607 99.5548 20.1713 99.1908 19.966C98.8361 19.7513 98.4208 19.644 97.9448 19.644C97.4781 19.644 97.0628 19.7513 96.6988 19.966C96.3348 20.1713 96.0501 20.4653 95.8448 20.848C95.6395 21.2213 95.5368 21.6507 95.5368 22.136V22.36C95.5368 22.8547 95.6488 23.298 95.8728 23.69C96.1061 24.0727 96.4281 24.3713 96.8388 24.586C97.2495 24.8007 97.7208 24.908 98.2528 24.908C98.6915 24.908 99.0881 24.8333 99.4428 24.684C99.8068 24.5347 100.124 24.3107 100.395 24.012L101.137 24.88C100.801 25.272 100.381 25.5707 99.8768 25.776C99.3821 25.9813 98.8268 26.084 98.2108 26.084ZM105.607 26.084C104.991 26.084 104.403 26 103.843 25.832C103.292 25.664 102.858 25.4587 102.541 25.216L103.101 24.152C103.418 24.3667 103.81 24.5487 104.277 24.698C104.744 24.8473 105.22 24.922 105.705 24.922C106.33 24.922 106.778 24.8333 107.049 24.656C107.329 24.4787 107.469 24.2313 107.469 23.914C107.469 23.6807 107.385 23.4987 107.217 23.368C107.049 23.2373 106.825 23.1393 106.545 23.074C106.274 23.0087 105.971 22.9527 105.635 22.906C105.299 22.85 104.963 22.7847 104.627 22.71C104.291 22.626 103.983 22.514 103.703 22.374C103.423 22.2247 103.199 22.024 103.031 21.772C102.863 21.5107 102.779 21.1653 102.779 20.736C102.779 20.288 102.905 19.896 103.157 19.56C103.409 19.224 103.764 18.9673 104.221 18.79C104.688 18.6033 105.238 18.51 105.873 18.51C106.358 18.51 106.848 18.5707 107.343 18.692C107.847 18.804 108.258 18.9673 108.575 19.182L108.001 20.246C107.665 20.022 107.315 19.868 106.951 19.784C106.587 19.7 106.223 19.658 105.859 19.658C105.271 19.658 104.832 19.756 104.543 19.952C104.254 20.1387 104.109 20.3813 104.109 20.68C104.109 20.932 104.193 21.128 104.361 21.268C104.538 21.3987 104.762 21.5013 105.033 21.576C105.313 21.6507 105.621 21.716 105.957 21.772C106.293 21.8187 106.629 21.884 106.965 21.968C107.301 22.0427 107.604 22.15 107.875 22.29C108.155 22.43 108.379 22.626 108.547 22.878C108.724 23.13 108.813 23.466 108.813 23.886C108.813 24.334 108.682 24.7213 108.421 25.048C108.16 25.3747 107.791 25.6313 107.315 25.818C106.839 25.9953 106.27 26.084 105.607 26.084ZM112.621 26.084C112.005 26.084 111.417 26 110.857 25.832C110.306 25.664 109.872 25.4587 109.555 25.216L110.115 24.152C110.432 24.3667 110.824 24.5487 111.291 24.698C111.757 24.8473 112.233 24.922 112.719 24.922C113.344 24.922 113.792 24.8333 114.063 24.656C114.343 24.4787 114.483 24.2313 114.483 23.914C114.483 23.6807 114.399 23.4987 114.231 23.368C114.063 23.2373 113.839 23.1393 113.559 23.074C113.288 23.0087 112.985 22.9527 112.649 22.906C112.313 22.85 111.977 22.7847 111.641 22.71C111.305 22.626 110.997 22.514 110.717 22.374C110.437 22.2247 110.213 22.024 110.045 21.772C109.877 21.5107 109.793 21.1653 109.793 20.736C109.793 20.288 109.919 19.896 110.171 19.56C110.423 19.224 110.777 18.9673 111.235 18.79C111.701 18.6033 112.252 18.51 112.887 18.51C113.372 18.51 113.862 18.5707 114.357 18.692C114.861 18.804 115.271 18.9673 115.589 19.182L115.015 20.246C114.679 20.022 114.329 19.868 113.965 19.784C113.601 19.7 113.237 19.658 112.873 19.658C112.285 19.658 111.846 19.756 111.557 19.952C111.267 20.1387 111.123 20.3813 111.123 20.68C111.123 20.932 111.207 21.128 111.375 21.268C111.552 21.3987 111.776 21.5013 112.047 21.576C112.327 21.6507 112.635 21.716 112.971 21.772C113.307 21.8187 113.643 21.884 113.979 21.968C114.315 22.0427 114.618 22.15 114.889 22.29C115.169 22.43 115.393 22.626 115.561 22.878C115.738 23.13 115.827 23.466 115.827 23.886C115.827 24.334 115.696 24.7213 115.435 25.048C115.173 25.3747 114.805 25.6313 114.329 25.818C113.853 25.9953 113.283 26.084 112.621 26.084ZM122.112 26V24.432L122.042 24.138V21.464C122.042 20.8947 121.874 20.456 121.538 20.148C121.212 19.8307 120.717 19.672 120.054 19.672C119.616 19.672 119.186 19.7467 118.766 19.896C118.346 20.036 117.992 20.2273 117.702 20.47L117.142 19.462C117.525 19.154 117.982 18.9207 118.514 18.762C119.056 18.594 119.62 18.51 120.208 18.51C121.226 18.51 122.01 18.7573 122.56 19.252C123.111 19.7467 123.386 20.5027 123.386 21.52V26H122.112ZM119.676 26.084C119.126 26.084 118.64 25.9907 118.22 25.804C117.81 25.6173 117.492 25.3607 117.268 25.034C117.044 24.698 116.932 24.32 116.932 23.9C116.932 23.4987 117.026 23.1347 117.212 22.808C117.408 22.4813 117.721 22.22 118.15 22.024C118.589 21.828 119.177 21.73 119.914 21.73H122.266V22.696H119.97C119.298 22.696 118.846 22.808 118.612 23.032C118.379 23.256 118.262 23.5267 118.262 23.844C118.262 24.208 118.407 24.502 118.696 24.726C118.986 24.9407 119.387 25.048 119.9 25.048C120.404 25.048 120.843 24.936 121.216 24.712C121.599 24.488 121.874 24.1613 122.042 23.732L122.308 24.656C122.131 25.0947 121.818 25.4447 121.37 25.706C120.922 25.958 120.358 26.084 119.676 26.084ZM129.122 28.8C128.44 28.8 127.778 28.702 127.134 28.506C126.499 28.3193 125.981 28.0487 125.58 27.694L126.224 26.658C126.569 26.9567 126.994 27.19 127.498 27.358C128.002 27.5353 128.529 27.624 129.08 27.624C129.957 27.624 130.601 27.4187 131.012 27.008C131.422 26.5973 131.628 25.972 131.628 25.132V23.564L131.768 22.094L131.698 20.61V18.58H132.972V24.992C132.972 26.2987 132.645 27.26 131.992 27.876C131.338 28.492 130.382 28.8 129.122 28.8ZM128.954 25.692C128.235 25.692 127.591 25.5427 127.022 25.244C126.462 24.936 126.014 24.5113 125.678 23.97C125.351 23.4287 125.188 22.8033 125.188 22.094C125.188 21.3753 125.351 20.75 125.678 20.218C126.014 19.6767 126.462 19.2567 127.022 18.958C127.591 18.6593 128.235 18.51 128.954 18.51C129.588 18.51 130.167 18.6407 130.69 18.902C131.212 19.154 131.628 19.546 131.936 20.078C132.253 20.61 132.412 21.282 132.412 22.094C132.412 22.8967 132.253 23.564 131.936 24.096C131.628 24.628 131.212 25.0293 130.69 25.3C130.167 25.5613 129.588 25.692 128.954 25.692ZM129.108 24.516C129.602 24.516 130.041 24.4133 130.424 24.208C130.806 24.0027 131.105 23.718 131.32 23.354C131.544 22.99 131.656 22.57 131.656 22.094C131.656 21.618 131.544 21.198 131.32 20.834C131.105 20.47 130.806 20.19 130.424 19.994C130.041 19.7887 129.602 19.686 129.108 19.686C128.613 19.686 128.17 19.7887 127.778 19.994C127.395 20.19 127.092 20.47 126.868 20.834C126.653 21.198 126.546 21.618 126.546 22.094C126.546 22.57 126.653 22.99 126.868 23.354C127.092 23.718 127.395 24.0027 127.778 24.208C128.17 24.4133 128.613 24.516 129.108 24.516ZM138.844 26.084C138.05 26.084 137.35 25.9207 136.744 25.594C136.146 25.2673 135.68 24.8193 135.344 24.25C135.017 23.6807 134.854 23.0273 134.854 22.29C134.854 21.5527 135.012 20.8993 135.33 20.33C135.656 19.7607 136.1 19.3173 136.66 19C137.229 18.6733 137.868 18.51 138.578 18.51C139.296 18.51 139.931 18.6687 140.482 18.986C141.032 19.3033 141.462 19.7513 141.77 20.33C142.087 20.8993 142.246 21.5667 142.246 22.332C142.246 22.388 142.241 22.4533 142.232 22.528C142.232 22.6027 142.227 22.6727 142.218 22.738H135.904V21.772H141.518L140.972 22.108C140.981 21.632 140.883 21.2073 140.678 20.834C140.472 20.4607 140.188 20.1713 139.824 19.966C139.469 19.7513 139.054 19.644 138.578 19.644C138.111 19.644 137.696 19.7513 137.332 19.966C136.968 20.1713 136.683 20.4653 136.478 20.848C136.272 21.2213 136.17 21.6507 136.17 22.136V22.36C136.17 22.8547 136.282 23.298 136.506 23.69C136.739 24.0727 137.061 24.3713 137.472 24.586C137.882 24.8007 138.354 24.908 138.886 24.908C139.324 24.908 139.721 24.8333 140.076 24.684C140.44 24.5347 140.757 24.3107 141.028 24.012L141.77 24.88C141.434 25.272 141.014 25.5707 140.51 25.776C140.015 25.9813 139.46 26.084 138.844 26.084Z" fill="#E7F0FF"/>
<path d="M340.354 21.3536C340.549 21.1583 340.549 20.8417 340.354 20.6464L337.172 17.4645C336.976 17.2692 336.66 17.2692 336.464 17.4645C336.269 17.6597 336.269 17.9763 336.464 18.1716L339.293 21L336.464 23.8284C336.269 24.0237 336.269 24.3403 336.464 24.5355C336.66 24.7308 336.976 24.7308 337.172 24.5355L340.354 21.3536ZM244 21.5H340V20.5H244V21.5Z" fill="#5973F3"/>
<defs>
<linearGradient id="paint0_linear_105_7" x1="0" y1="20.5" x2="364" y2="20.5" gradientUnits="userSpaceOnUse">
<stop stop-color="#2B2D32"/>
<stop offset="1" stop-color="#282C37"/>
</linearGradient>
<linearGradient id="paint1_linear_105_7" x1="183.13" y1="-1.87143e-08" x2="183.13" y2="41" gradientUnits="userSpaceOnUse">
<stop stop-color="#3E496F" stop-opacity="0.5"/>
<stop offset="1" stop-color="#323645" stop-opacity="0.2"/>
</linearGradient>
</defs>
</svg>
