<svg width="26" height="26" viewBox="0 0 26 26" fill="none" xmlns="http://www.w3.org/2000/svg">
<path d="M25.1267 5.07138V21.1427C25.1267 22.2122 24.5644 23.1846 23.6827 23.6429C22.507 24.2541 20.9097 25.1014 19.9513 25.6015C19.9896 25.3793 20.0151 25.1292 20.0151 24.8931V1.36262C20.0151 1.05703 19.9768 0.807006 19.9385 0.64032C20.9736 1.16816 22.5326 1.9877 23.6699 2.5711C24.5644 3.02948 25.1267 4.00182 25.1267 5.07138Z" fill="#5973F3"/>
<path d="M2.00985 14.9891C2.98105 15.9615 4.08003 17.0449 5.21736 18.1562C4.5273 18.7257 3.91391 19.2396 3.41553 19.6424C2.66157 20.2536 1.62648 20.2397 0.885304 19.5869C0.386926 19.1424 0.131348 18.4895 0.131348 17.8506C0.131348 17.2394 0.348589 16.6421 0.795851 16.1976C1.15366 15.8365 1.56259 15.4336 2.00985 14.9891Z" fill="#5973F3"/>
<path d="M17.4594 1.36261V8.04393C17.4594 8.04393 15.7215 9.47465 13.4213 11.3776C12.0412 10.2525 10.5844 9.04405 9.21704 7.90503C12.2073 4.94636 15.0187 2.15437 16.3477 0.820886C16.6416 0.515295 17.0633 0.598638 17.2933 0.876448C17.3572 0.959791 17.4083 1.05702 17.4339 1.18204C17.4467 1.2376 17.4594 1.29316 17.4594 1.36261Z" fill="#5973F3"/>
<path d="M17.4594 24.8931V18.2118C17.4594 18.2118 7.10079 9.65245 3.41663 6.62016C2.66267 5.99926 1.62247 6.02287 0.887679 6.67017C-0.0911859 7.53277 -0.132079 9.1399 0.80206 10.0594C4.64851 13.8488 13.6244 22.697 16.3489 25.4348C16.7719 25.8613 17.4594 25.532 17.4594 24.8931Z" fill="#5973F3"/>
</svg>
